<svg xmlns="http://www.w3.org/2000/svg" viewBox="0 0 64 64"><path fill="currentColor" d="m 40.95611,28.764079 -9.676087,-2.843143 c -1.074388,-0.343024 -2.254237,-0.178108 -3.196799,0.441973 0,0 -8.430326,5.772045 -7.36912,6.042504 l 9.676088,2.843144 c 1.581923,0.46836 2.590397,2.005374 2.399246,3.641336 l -1.24576,10.303922 c -0.08569,1.154408 8.700568,-3.733688 8.700568,-3.733688 1.041433,-0.554116 1.733523,-1.583188 1.86535,-2.750792 l 1.245763,-10.389676 c 0.191151,-1.616174 -0.830508,-3.1268 -2.399249,-3.55558 z"/><path fill="currentColor" d="M 0.71496215,23.88258 C 5.3025355,6.7247687 22.9146,-3.4604136 40.058677,1.130834 c 7.08569,1.8998267 13.314507,6.1678407 17.638428,12.091607 0.230697,0.270463 0.303201,0.646469 0.177965,0.976299 l -1.86535,5.33007 c -0.04615,0.244075 -0.276836,0.402394 -0.514124,0.356218 0,0 -0.01307,0 -0.01977,0 h -5.859705 c -0.322974,-0.02639 -0.63277,-0.151728 -0.88983,-0.356218 -1.647837,-1.451256 -3.500003,-2.65184 -5.50377,-3.555577 -2.847459,-1.391888 -5.971755,-2.124112 -9.142188,-2.130711 -2.676086,0 -5.325805,0.507942 -7.810741,1.510628 -5.306028,1.919616 -9.709045,5.752252 -12.338988,10.745894 -0.164785,0.244076 -0.500944,0.303446 -0.738232,0.131933 -0.01977,-0.01307 -0.03955,-0.02639 -0.05931,-0.04617 L 9.2309829,21.831039 c -0.184556,-0.250674 -0.527307,-0.329832 -0.797551,-0.178111 l -7.2768414,2.665037 c -0.18455894,0.05937 -0.38888965,-0.04617 -0.44162035,-0.237478 -0.019773,-0.06597 -0.019773,-0.138528 0,-0.211095 z M 37.639655,58.521436 c -1.166667,0.257269 -2.359701,0.376008 -3.552733,0.356219 -3.368176,-0.01307 -6.683619,-0.837772 -9.67609,-2.401171 C 17.153768,53.131996 12.243219,46.146175 11.544537,38.177458 11.504987,37.88061 11.379753,37.603551 11.188605,37.379267 L 7.2865319,33.737931 C 6.9371885,33.460874 6.4626125,33.388311 6.0407675,33.559823 l -5.68173755,2.401171 c -0.2372894,0.112147 -0.3822975,0.362813 -0.3559321,0.620081 C 2.2968855,52.36679 15.835499,64.062599 31.773361,64.029615 c 2.293786,-0.01307 4.587574,-0.250671 6.83522,-0.712434 1.272128,-0.507941 1.898306,-1.9526 1.384183,-3.232346 -0.3823,-0.963106 -1.324859,-1.589786 -2.366293,-1.563399 z M 63.286562,25.749424 c -0.08569,-0.263864 -0.355935,-0.356219 -0.5339,-0.08576 l -2.484935,4.175659 c -0.145008,0.1979 -0.375706,0.329832 -0.619585,0.356218 h -3.552734 c -0.24388,0 -0.448212,0.191302 -0.454803,0.435376 0,0.03299 0,0.06597 0.0065,0.09895 0.652541,2.249448 0.955746,4.584654 0.889829,6.926454 -0.263652,6.741745 -3.598869,12.995343 -9.04991,16.966507 -0.843691,0.606889 -1.258945,1.642557 -1.067795,2.665036 -0.01307,0.151728 0.01977,0.310041 0.08569,0.441971 0.435028,1.200586 1.753297,1.820669 2.952919,1.385293 0.210923,-0.07915 0.415255,-0.184707 0.593223,-0.323236 8.384185,-5.75885 13.551795,-15.14584 13.934092,-25.31783 0.07909,-2.592472 -0.158192,-5.191541 -0.711864,-7.724644 z"/></svg>
