<svg xmlns="http://www.w3.org/2000/svg" width="24" height="24"><path d="M15.062 7.608c-.44 0-.894.02-1.206.06-.22.03-.52.074-.666.103l-.271.044-.3 1.597c-.17.871-.535 2.761-.806 4.19l-.499 2.6.88.005.915.002s.169-.769.337-1.67l.308-1.633.432-.022c.557-.022.9.139 1.084.512.088.169.168.645.234 1.282.059.557.125 1.136.154 1.282l.044.278H17.574s-.136-.74-.238-1.757c-.132-1.246-.257-1.678-.586-2.015l-.242-.242.469-.234c.542-.278.996-.74 1.223-1.23.227-.491.227-1.466 0-1.89-.33-.623-1.033-1.04-2.014-1.202a8.306 8.306 0 0 0-1.124-.06zm.007 1.451c.3.003.633.038.787.104.864.366.835 1.509-.051 2.058-.315.19-.432.22-1.07.242l-.71.029.212-1.12c.117-.623.227-1.173.242-1.224.022-.062.29-.092.59-.089zm-6.082 1.33c-.278 1.479-.55 2.87-.615 3.09-.169.638-.41.99-.798 1.173-.33.16-1.676.025-1.676.025s-.005.118-.1.758c-.095.402-.168.795-.168.795s.97.194 1.621.158c1.51-.081 2.3-.704 2.77-2.176.138-.418 1.26-6.51 1.259-6.52H9.486z" fill="#fff"/></svg>