<svg xmlns="http://www.w3.org/2000/svg" viewBox="0 0 64 64"><path fill="#fc3" d="M-.146-.146h64v64h-64z"/><path d="M14.235 32a6.805 6.805 0 0 1 6.799-6.799h8.773v-4.167h-8.773A10.966 10.966 0 0 0 10.068 32a10.966 10.966 0 0 0 10.966 10.966h8.773V38.8h-8.773a6.805 6.805 0 0 1-6.8-6.799m8.993 2.193h17.546v-4.386H23.227v4.386m19.74-13.16h-8.774v4.168h8.773a6.805 6.805 0 0 1 6.8 6.799 6.805 6.805 0 0 1-6.8 6.799h-8.773v4.167h8.773A10.966 10.966 0 0 0 53.932 32a10.966 10.966 0 0 0-10.966-10.966z" fill="#fff"/></svg>