<svg xmlns="http://www.w3.org/2000/svg" viewBox="0 0 64 64"><path d="M40.076 20.416c-1.16 0-2.358.053-3.18.158-.581.08-1.372.195-1.757.272l-.715.116-.792 4.212c-.448 2.298-1.41 7.283-2.126 11.052l-1.316 6.858 2.321.013 2.414.006s.446-2.029.889-4.405l.812-4.308 1.14-.058c1.469-.058 2.374.367 2.859 1.35.232.447.443 1.702.617 3.382.156 1.47.33 2.997.406 3.382l.116.733h4.938s-.359-1.952-.628-4.634c-.348-3.287-.677-4.426-1.545-5.315l-.639-.639 1.238-.617c1.43-.733 2.627-1.952 3.225-3.244.6-1.295.6-3.867 0-4.985-.87-1.644-2.724-2.744-5.312-3.171a21.909 21.909 0 00-2.965-.158zm.019 3.827c.791.008 1.67.1 2.076.274 2.279.966 2.202 3.98-.135 5.429-.83.5-1.14.58-2.822.638l-1.873.077.56-2.955c.308-1.643.598-3.094.638-3.228.058-.164.764-.243 1.556-.235zm-16.043 3.508c-.733 3.901-1.45 7.57-1.622 8.15-.446 1.684-1.081 2.612-2.105 3.095-.87.422-4.42.066-4.42.066s-.014.31-.264 2c-.25 1.06-.443 2.096-.443 2.096s2.558.512 4.275.417c3.983-.214 6.067-1.857 7.307-5.74.364-1.102 3.323-17.171 3.32-17.198h-4.732z" fill="currentColor"/></svg>
