<svg xmlns="http://www.w3.org/2000/svg" viewBox="0 0 64 64"><path fill="currentColor" d="m 36.478052,30.031846 -4.838041,-1.421572 c -0.537194,-0.171512 -1.127118,-0.08905 -1.598399,0.220988 0,0 -4.215161,2.886022 -3.684558,3.021252 l 4.838042,1.421572 c 0.790961,0.23418 1.295198,1.002687 1.199623,1.820668 l -0.622881,5.15196 c -0.04285,0.577204 4.350282,-1.866844 4.350282,-1.866844 0.520717,-0.277057 0.866761,-0.791593 0.932675,-1.375396 l 0.622881,-5.194837 c 0.09558,-0.808087 -0.415254,-1.5634 -1.199624,-1.777791 z"/><path fill="currentColor" d="M 16.357461,27.591097 C 18.651246,19.012191 27.457275,13.9196 36.029309,16.215224 c 3.542844,0.949914 6.657251,3.08392 8.81921,6.045803 0.115349,0.135231 0.151601,0.323235 0.08898,0.48815 l -0.932674,2.665035 c -0.02307,0.122038 -0.138419,0.201197 -0.257063,0.178109 0,0 -0.0066,0 -0.0099,0 h -2.92985 c -0.161488,-0.01319 -0.316385,-0.07586 -0.444915,-0.178109 -0.823918,-0.725628 -1.750001,-1.32592 -2.751884,-1.777789 -1.423729,-0.695944 -2.985876,-1.062056 -4.571093,-1.065355 -1.338041,0 -2.662901,0.25397 -3.905368,0.755314 -2.653013,0.959808 -4.854521,2.876126 -6.169491,5.372947 -0.08239,0.122037 -0.250472,0.151723 -0.369116,0.06597 -0.0099,-0.0066 -0.01978,-0.01319 -0.02966,-0.02309 l -1.951039,-2.176884 c -0.09228,-0.125337 -0.263653,-0.164916 -0.398775,-0.08906 l -3.638419,1.332518 c -0.09228,0.02969 -0.194444,-0.02309 -0.22081,-0.118739 -0.0099,-0.03298 -0.0099,-0.06926 0,-0.105547 z m 18.462338,17.319428 c -0.583334,0.128635 -1.17985,0.188004 -1.776366,0.178109 -1.684087,-0.0066 -3.341808,-0.418885 -4.838043,-1.200585 -3.62853,-1.672244 -6.083803,-5.165155 -6.433144,-9.149513 -0.01978,-0.148424 -0.08239,-0.286954 -0.177966,-0.399095 l -1.951036,-1.820668 c -0.174672,-0.138529 -0.411959,-0.174811 -0.622882,-0.08905 l -2.840867,1.200586 c -0.118644,0.05607 -0.191148,0.181406 -0.177966,0.310041 1.146893,7.892856 7.916197,13.740761 15.885124,13.724269 1.146893,-0.0066 2.293786,-0.125335 3.417609,-0.356217 0.636063,-0.25397 0.949152,-0.9763 0.692091,-1.616172 -0.19115,-0.481553 -0.66243,-0.794893 -1.183146,-0.7817 z M 47.643247,28.524518 c -0.04285,-0.131932 -0.177967,-0.178108 -0.26695,-0.04288 l -1.242467,2.087831 c -0.0725,0.09895 -0.187853,0.164916 -0.309793,0.178109 h -1.776365 c -0.12194,0 -0.224107,0.09565 -0.227402,0.217688 0,0.0165 0,0.03298 0.0033,0.04947 0.326271,1.124724 0.477873,2.292326 0.444915,3.463226 -0.131826,3.370873 -1.799434,6.497672 -4.524953,8.483253 -0.421846,0.303445 -0.629473,0.82128 -0.533898,1.332519 -0.0066,0.07586 0.0099,0.155021 0.04285,0.220985 0.217514,0.600293 0.876648,0.910335 1.476459,0.692647 0.105462,-0.03958 0.207627,-0.09235 0.296611,-0.161619 4.192091,-2.879424 6.775895,-7.572919 6.967044,-12.658915 0.03954,-1.296236 -0.0791,-2.59577 -0.355932,-3.862321 z"/></svg>
