<svg xmlns="http://www.w3.org/2000/svg" viewBox="0 0 64 64"><path fill="var(--icon-color-accent, #ff8700)" d="m 37.597568,29.938707 -6.047554,-1.776965 c -0.671493,-0.21439 -1.408898,-0.111317 -1.997999,0.276234 0,0 -5.268954,3.607528 -4.6057,3.776565 l 6.047555,1.776965 c 0.988702,0.292725 1.618998,1.253359 1.499529,2.275835 l -0.778601,6.439951 c -0.05356,0.721505 5.437855,-2.333555 5.437855,-2.333555 0.650896,-0.346322 1.083452,-0.989492 1.165844,-1.719245 l 0.778602,-6.493547 c 0.119469,-1.010109 -0.519068,-1.95425 -1.499531,-2.222238 z"/><path fill="currentColor" d="M 12.446831,26.88777 C 15.314064,16.164138 26.321604,9.7983991 37.036652,12.667929 c 4.428556,1.187392 8.321567,3.8549 11.024017,7.557254 0.144186,0.169039 0.189501,0.404043 0.111229,0.610187 l -1.165844,3.331294 c -0.02884,0.152547 -0.173023,0.251496 -0.321328,0.222636 0,0 -0.0082,0 -0.01236,0 h -3.662315 c -0.201859,-0.01649 -0.395481,-0.09483 -0.556144,-0.222636 -1.029898,-0.907035 -2.187502,-1.6574 -3.439856,-2.222236 -1.779662,-0.86993 -3.732347,-1.32757 -5.713868,-1.331694 -1.672553,0 -3.328628,0.317463 -4.881713,0.944142 -3.316267,1.19976 -6.068153,3.595158 -7.711867,6.716184 -0.102991,0.152547 -0.31309,0.189654 -0.461395,0.08246 -0.01236,-0.0082 -0.02472,-0.01649 -0.03707,-0.02886 l -2.4388,-2.721105 C 17.653991,25.448884 17.439772,25.39941 17.270869,25.494236 l -4.548025,1.665648 c -0.115349,0.03711 -0.243056,-0.02886 -0.276013,-0.148424 -0.01236,-0.04123 -0.01236,-0.08658 0,-0.131934 z m 23.077932,21.649286 c -0.729167,0.160793 -1.474813,0.235005 -2.220458,0.222636 -2.10511,-0.0082 -4.177262,-0.523607 -6.047556,-1.500731 -4.535665,-2.090305 -7.604758,-6.456444 -8.041434,-11.436892 -0.02472,-0.18553 -0.10299,-0.358692 -0.222458,-0.498869 l -2.438796,-2.275835 c -0.218339,-0.173161 -0.514949,-0.218513 -0.778602,-0.111318 l -3.551085,1.500732 c -0.148306,0.07009 -0.238936,0.226758 -0.222458,0.387551 1.433617,9.866071 9.89525,17.175952 19.856413,17.155337 1.433617,-0.0082 2.867234,-0.156669 4.272013,-0.445271 0.79508,-0.317463 1.186441,-1.220375 0.865114,-2.020216 -0.238937,-0.601941 -0.828037,-0.993616 -1.478933,-0.977124 z M 51.55408,28.054547 c -0.05356,-0.164915 -0.222459,-0.222636 -0.333688,-0.0536 l -1.553084,2.609788 c -0.09063,0.123687 -0.234816,0.206145 -0.387241,0.222636 h -2.220458 c -0.152425,0 -0.280133,0.119564 -0.284252,0.27211 0,0.02062 0,0.04123 0.0041,0.06184 0.407839,1.405905 0.597341,2.865408 0.556144,4.329033 -0.164783,4.213591 -2.249294,8.12209 -5.656194,10.604067 -0.527307,0.379306 -0.786841,1.026599 -0.667372,1.665648 -0.0082,0.09483 0.01236,0.193776 0.05356,0.276232 0.271892,0.750366 1.09581,1.137918 1.845574,0.865808 0.131827,-0.04947 0.259534,-0.115442 0.370764,-0.202023 5.240116,-3.599281 8.469872,-9.46615 8.708808,-15.823644 0.04943,-1.620295 -0.09887,-3.244713 -0.444915,-4.827902 z"/></svg>
