<?xml version="1.0" encoding="UTF-8" standalone="no"?><svg xmlns="http://www.w3.org/2000/svg" width="24" height="24" viewBox="0 0 24 24" version="1.1"><g transform="translate(0,-1028.3622)"><path style="fill:#ffcc33;" d="M 2.0683593,1028.3622 A 2.0691725,2.0691725 0 0 0 3.0727663e-7,1030.4325 l 0,19.8613 A 2.0691725,2.0691725 0 0 0 2.0683593,1052.3622 l 19.8632817,0 A 2.0691725,2.0691725 0 0 0 24,1050.2938 l 0,-19.8613 a 2.0691725,2.0691725 0 0 0 -2.068359,-2.0703 l -19.8632817,0 z" /><g transform="matrix(0.86801265,0,0,0.86801265,-3.7063532,1058.4829)" style="fill:#f5bc11;"><path style="fill:#ffffff;fill-opacity:1" d="m 22.697687,-27.047147 c -0.637187,0 -1.294245,0.02914 -1.744648,0.08743 -0.317931,0.04239 -0.752437,0.105978 -0.964391,0.148368 l -0.392116,0.06359 -0.434506,2.310301 c -0.243747,1.261128 -0.773633,3.995338 -1.165748,6.061891 l -0.720644,3.762188 1.271725,0.0079 1.324714,0.0027 c 0,0 0.243747,-1.11276 0.487495,-2.416279 l 0.445104,-2.363289 0.625264,-0.03179 c 0.805426,-0.03179 1.303519,0.201356 1.568462,0.741839 0.127172,0.243748 0.243747,0.932599 0.339126,1.8546 0.08478,0.805426 0.180162,1.642645 0.222552,1.854599 l 0.06359,0.402713 1.377702,0 c 1.25053,0 1.331005,-0.0016 1.331005,-0.0016 0,0 -0.19705,-1.068766 -0.345418,-2.541847 -0.190762,-1.801615 -0.370923,-2.42688 -0.84782,-2.914375 l -0.349724,-0.349724 0.678253,-0.339127 c 0.784231,-0.402713 1.441289,-1.070369 1.769818,-1.780416 0.328529,-0.710046 0.328529,-2.119542 0,-2.734209 -0.476897,-0.900806 -1.494277,-1.504876 -2.91437,-1.738026 -0.37092,-0.05829 -0.988237,-0.08743 -1.625425,-0.08743 z m 0.0093,2.099672 c 0.434506,0.004 0.916702,0.05431 1.139254,0.149693 1.250529,0.529885 1.208139,2.183128 -0.07418,2.977956 -0.455702,0.275541 -0.625265,0.317932 -1.547266,0.349725 l -1.027978,0.04239 0.307333,-1.62145 c 0.169564,-0.900806 0.328529,-1.695634 0.349725,-1.769818 0.03179,-0.09008 0.418609,-0.132471 0.853112,-0.128497 z m -8.798427,1.923161 c -0.402713,2.140738 -0.794828,4.154303 -0.890207,4.472234 -0.243748,0.922001 -0.593472,1.430691 -1.155151,1.695634 -0.476897,0.233149 -2.4243432,0.03749 -2.4243432,0.03749 0,0 -0.00684,0.170154 -0.1440177,1.095533 -0.1377703,0.582877 -0.2438745,1.150847 -0.2438745,1.150847 0,0 1.4027404,0.280776 2.3459364,0.227787 2.183128,-0.116574 3.327681,-1.01738 4.005935,-3.14752 0.201356,-0.604069 1.823112,-9.418265 1.822806,-9.433341 0,0 -0.264943,0.0014 -1.292921,0.0014 l -1.303518,0 z" /></g></g></svg>
